<!-- assets/images/sprite.svg -->
<svg xmlns="http://www.w3.org/2000/svg" style="display: none;">
  <symbol id="icon-computer" viewBox="0 0 512 512">
    <path stroke="currentColor" fill="currentFill" d="M386 5029 c-62 -15 -153 -68 -197 -116 -22 -24 -55 -74 -72 -111 l-32 -67 0 -1576 0 -1575 37 -76 c45 -91 103 -147 196 -191 l67 -32 797 -3 797 -3 26 -43 c51 -88 68 -153 69 -271 1 -90 -3 -122 -22 -177 l-23 -66 -222 -4 -222 -3 -67 -32 c-93 -44 -151 -100 -196 -191 -36 -75 -37 -77 -41 -218 -3 -142 -3 -143 22 -168 l26 -26 1231 0 1231 0 26 26 c25 25 25 26 22 168 -4 141 -5 143 -41 218 -45 91 -103 147 -196 191 l-67 32 -222 3 -222 4 -23 66 c-19 55 -23 87 -22 177 1 118 18 183 69 271 l26 43 797 3 798 3 76 37 c91 45 147 103 191 196 l32 67 0 1575 0 1575 -32 67 c-44 93 -100 151 -191 196 l-76 37 -2155 2 c-1279 0 -2172 -3 -2195 -8z m4328 -161 c55 -16 138 -99 154 -154 9 -31 12 -315 12 -1178 l0 -1136 -80 0 -80 0 -2 1109 c-3 1103 -3 1110 -24 1137 -11 15 -33 37 -48 48 l-27 21 -2059 0 -2059 0 -27 -21 c-15 -11 -37 -33 -48 -48 -21 -27 -21 -34 -24 -1137 l-2 -1109 -80 0 -80 0 0 1136 c0 863 3 1147 12 1178 15 51 99 137 148 153 53 17 4257 18 4314 1z m-154 -708 l0 -400 -308 0 -307 0 -23 43 c-56 106 -175 204 -302 248 -93 33 -248 33 -342 1 -116 -40 -223 -124 -292 -227 -31 -47 -33 -84 -7 -116 18 -22 28 -24 149 -29 141 -5 160 -12 206 -74 29 -39 29 -133 0 -172 -46 -62 -65 -69 -206 -74 -121 -5 -131 -7 -149 -29 -26 -32 -24 -69 7 -116 68 -103 176 -187 292 -227 55 -19 87 -23 177 -22 95 0 120 4 179 27 123 48 246 155 294 255 l16 32 308 0 308 0 0 -440 0 -440 -2000 0 -2000 0 0 1080 0 1080 2000 0 2000 0 0 -400z m-968 -269 c82 -31 157 -104 204 -196 23 -44 48 -78 62 -84 15 -7 146 -11 362 -11 l340 0 0 -80 0 -80 -347 0 c-258 -1 -352 -4 -364 -13 -8 -7 -33 -45 -54 -85 -46 -88 -124 -162 -205 -194 -42 -17 -76 -22 -145 -23 -83 0 -96 3 -160 35 l-70 34 35 9 c59 14 159 68 186 100 14 16 37 53 52 81 22 43 26 64 26 136 0 72 -4 93 -26 136 -15 28 -38 64 -52 81 -29 35 -112 82 -174 97 l-44 12 49 27 c28 15 68 31 89 36 60 15 172 6 236 -18z m1288 -1947 c0 -204 -4 -310 -12 -338 -16 -55 -99 -138 -154 -154 -60 -18 -4248 -18 -4308 0 -55 16 -138 99 -154 154 -8 28 -12 134 -12 338 l0 296 2320 0 2320 0 0 -296z m-1930 -669 c0 -2 -9 -28 -21 -57 -28 -70 -49 -185 -49 -261 0 -54 18 -163 35 -218 6 -18 -7 -19 -355 -19 -348 0 -361 1 -355 19 17 55 35 164 35 218 0 76 -21 191 -49 261 -12 29 -21 55 -21 57 0 3 176 5 390 5 215 0 390 -2 390 -5z m564 -727 c55 -16 138 -99 154 -154 7 -23 12 -67 12 -98 l0 -56 -1120 0 -1120 0 0 56 c0 31 5 75 12 98 15 51 99 137 148 153 53 16 1858 17 1914 1z"/>
  </symbol>

  <symbol id="icon-social-media" viewBox="0 0 512 512">
    <path stroke="currentColor" fill="currentFill" d="M768 5014 c-30 -16 -58 -61 -58 -94 0 -12 -7 -34 -15 -50 -30 -58 -87 -66 -155 -20 -49 33 -87 37 -128 16 -32 -17 -145 -131 -161 -163 -19 -37 -12 -78 19 -124 45 -67 38 -124 -20 -154 -16 -8 -38 -15 -50 -15 -34 0 -78 -28 -95 -60 -11 -20 -15 -59 -15 -132 0 -144 21 -174 132 -193 78 -12 99 -88 48 -164 -53 -77 -40 -119 67 -222 92 -89 136 -98 210 -43 63 48 146 19 158 -54 18 -111 58 -135 212 -130 l105 3 34 37 c25 28 34 47 34 74 0 26 8 43 29 65 37 36 83 38 131 5 82 -55 121 -47 217 47 101 97 114 149 57 224 -34 45 -32 96 5 134 22 21 39 29 65 29 27 0 46 9 74 34 l37 34 3 105 c5 154 -19 194 -130 212 -73 12 -102 95 -54 158 55 74 46 118 -43 210 -103 107 -145 120 -222 67 -76 -51 -152 -30 -164 48 -19 112 -49 132 -195 132 -73 -1 -113 -5 -132 -16z m192 -162 c37 -139 194 -210 325 -148 l50 24 36 -35 36 -34 -24 -46 c-64 -128 4 -288 139 -328 43 -12 43 -12 46 -63 l3 -51 -39 -10 c-54 -15 -101 -49 -136 -99 -26 -37 -31 -54 -34 -115 -3 -62 0 -79 21 -117 l25 -45 -35 -37 -35 -36 -47 25 c-39 21 -56 24 -118 21 -61 -3 -78 -8 -115 -34 -50 -35 -84 -82 -99 -136 l-10 -39 -51 3 c-51 3 -51 3 -63 46 -40 135 -200 203 -328 139 l-46 -24 -34 36 -35 36 24 50 c62 131 -9 288 -148 326 l-39 10 3 51 c3 51 3 51 46 63 134 40 204 205 138 326 l-24 44 35 37 35 36 46 -24 c125 -67 307 15 328 148 l7 38 53 0 53 0 11 -38z m-935 -1278 c-27 -27 -200 -164 -206 -164 -4 0 -44 38 -90 84 -61 61 -81 88 -75 98 5 8 45 58 89 111 l80 97 107 -107 c85 -84 105 -110 95 -119z m-399 -168 l114 -111 -4 -90 c-4 -74 -9 -100 -33 -148 -60 -121 -195 -213 -377 -257 -84 -21 -333 -49 -343 -39 -3 3 7 35 21 70 36 87 49 133 79 279 31 145 67 228 131 299 83 93 153 125 249 114 48 -5 55 -10 163 -117z"/>
  </symbol>

  <symbol id="icon-web-design" viewBox="0 0 512 512">
    <path stroke="currentColor" fill="currentFill" d="M359 4566 c-142 -53 -229 -146 -264 -282 -14 -54 -15 -217 -13 -1415 l3 -1355 37 -76 c45 -91 103 -147 196 -191 l67 -32 652 -5 651 -5 -47 -115 -48 -115 -179 -5 c-194 -5 -213 -10 -265 -67 -42 -44 -59 -87 -59 -147 0 -67 9 -93 52 -141 69 -80 -5 -75 1073 -75 1078 0 1004 -5 1073 75 42 48 52 74 52 140 0 66 -10 92 -51 139 -57 66 -74 70 -273 76 l-178 5 -48 115 -49 115 653 5 652 5 76 37 c91 45 147 103 191 196 l32 67 3 765 c2 421 0 775 -3 787 -12 51 -75 71 -108 35 -15 -17 -17 -74 -17 -615 l0 -597 -2005 0 -2005 0 2 1183 c3 1092 4 1185 20 1218 25 54 64 96 117 127 l46 27 1795 3 c1313 2 1806 0 1836 -9 49 -13 80 -1 94 37 12 31 -4 68 -39 85 -38 20 -3668 24 -3722 5z m3859 -2918 c-7 -154 -51 -233 -158 -282 l-45 -21 -1800 0 -1800 0 -45 21 c-107 49 -152 129 -158 282 l-4 102 2007 0 2008 0 -5 -102z m-1575 -551 c26 -62 47 -116 47 -120 0 -4 -214 -7 -475 -7 -261 0 -475 3 -475 7 0 4 21 58 47 120 l47 113 381 0 381 0 47 -113z m526 -272 c49 -25 57 -90 16 -130 l-24 -25 -946 0 -946 0 -24 25 c-42 41 -32 105 20 133 14 8 296 11 948 12 795 0 932 -2 956 -15z"/>
  </symbol>

  <symbol id="icon-seo" viewBox="0 0 512 512">
    <path stroke="currentColor" fill="currentFill" d="M3303 4697 c-237 -236 -263 -266 -263 -295 0 -22 8 -41 25 -57 22 -23 32 -25 120 -25 l95 0 0 -80 0 -80 -1407 -2 -1408 -3 -67 -32 c-93 -44 -151 -100 -196 -191 l-37 -76 -3 -208 -4 -208 81 0 81 0 0 176 c0 110 5 192 12 218 16 55 99 138 154 154 32 9 366 12 1418 12 l1376 0 0 -760 0 -760 80 0 80 0 0 974 c0 931 -1 975 -18 997 -12 14 -34 24 -61 28 l-41 6 140 140 140 140 140 -140 140 -140 -41 -6 c-27 -4 -49 -14 -61 -28 -17 -22 -18 -65 -18 -957 l0 -934 80 0 80 0 0 720 0 720 176 0 c110 0 192 -5 218 -12 55 -16 138 -99 154 -154 9 -31 12 -246 12 -858 l0 -816 80 0 81 0 -3 848 -3 847 -32 67 c-44 93 -100 151 -191 196 l-76 37 -208 3 -208 4 0 79 0 79 95 0 c88 0 98 2 120 25 17 16 25 35 25 57 0 29 -26 59 -263 295 -242 243 -265 263 -297 263 -32 0 -55 -20 -297 -263z"/>
  </symbol>
</svg>
