<?xml version="1.0" standalone="no"?>
<!DOCTYPE svg PUBLIC "-//W3C//DTD SVG 20010904//EN"
 "http://www.w3.org/TR/2001/REC-SVG-20010904/DTD/svg10.dtd">
<svg version="1.0" xmlns="http://www.w3.org/2000/svg"
 width="512.000000pt" height="512.000000pt" viewBox="0 0 512.000000 512.000000"
 preserveAspectRatio="xMidYMid meet">

<g transform="translate(0.000000,512.000000) scale(0.100000,-0.100000)"
fill="#000000" stroke="none">
<path d="M359 4566 c-142 -53 -229 -146 -264 -282 -14 -54 -15 -217 -13 -1415
l3 -1355 37 -76 c45 -91 103 -147 196 -191 l67 -32 652 -5 651 -5 -47 -115
-48 -115 -179 -5 c-194 -5 -213 -10 -265 -67 -42 -44 -59 -87 -59 -147 0 -67
9 -93 52 -141 69 -80 -5 -75 1073 -75 1078 0 1004 -5 1073 75 42 48 52 74 52
140 0 66 -10 92 -51 139 -57 66 -74 70 -273 76 l-178 5 -48 115 -49 115 653 5
652 5 76 37 c91 45 147 103 191 196 l32 67 3 765 c2 421 0 775 -3 787 -12 51
-75 71 -108 35 -15 -17 -17 -74 -17 -615 l0 -597 -2005 0 -2005 0 2 1183 c3
1092 4 1185 20 1218 25 54 64 96 117 127 l46 27 1795 3 c1313 2 1806 0 1836
-9 49 -13 80 -1 94 37 12 31 -4 68 -39 85 -38 20 -3668 24 -3722 5z m3859
-2918 c-7 -154 -51 -233 -158 -282 l-45 -21 -1800 0 -1800 0 -45 21 c-107 49
-152 129 -158 282 l-4 102 2007 0 2008 0 -5 -102z m-1575 -551 c26 -62 47
-116 47 -120 0 -4 -214 -7 -475 -7 -261 0 -475 3 -475 7 0 4 21 58 47 120 l47
113 381 0 381 0 47 -113z m526 -272 c49 -25 57 -90 16 -130 l-24 -25 -946 0
-946 0 -24 25 c-42 41 -32 105 20 133 14 8 296 11 948 12 795 0 932 -2 956
-15z"/>
<path d="M2162 1597 c-58 -62 11 -152 87 -113 46 24 54 67 20 110 -27 34 -77
36 -107 3z"/>
<path d="M4520 4565 c-127 -35 -123 -32 -685 -711 l-521 -629 -89 -1 c-107 -1
-180 -25 -254 -84 -124 -98 -200 -240 -237 -443 -23 -124 -56 -224 -109 -330
-51 -98 -54 -118 -24 -148 21 -21 28 -22 198 -16 240 7 391 38 535 109 200 98
314 264 317 463 l1 73 623 506 c343 279 640 525 660 547 180 200 109 524 -140
641 -80 37 -190 46 -275 23z m222 -143 c142 -64 203 -240 133 -378 -28 -54
-59 -81 -488 -431 -253 -205 -462 -373 -466 -373 -3 0 -58 51 -120 114 l-114
114 106 129 c434 527 646 779 668 796 77 57 193 69 281 29z m-935 -1278 c-27
-27 -200 -164 -206 -164 -4 0 -44 38 -90 84 -61 61 -81 88 -75 98 5 8 45 58
89 111 l80 97 107 -107 c85 -84 105 -110 95 -119z m-399 -168 l114 -111 -4
-90 c-4 -74 -9 -100 -33 -148 -60 -121 -195 -213 -377 -257 -84 -21 -333 -49
-343 -39 -3 3 7 35 21 70 36 87 49 133 79 279 31 145 67 228 131 299 83 93
153 125 249 114 48 -5 55 -10 163 -117z"/>
<path d="M480 4160 c-19 -19 -20 -33 -20 -379 l0 -360 27 -21 c26 -20 32 -21
471 -18 l444 3 19 24 c18 22 19 44 19 371 0 336 -1 348 -21 374 l-20 26 -450
0 c-436 0 -450 -1 -469 -20z m830 -375 l0 -265 -360 0 -360 0 0 265 0 265 360
0 360 0 0 -265z"/>
<path d="M1620 4153 c-20 -26 -21 -34 -18 -379 3 -324 5 -355 21 -371 16 -17
51 -18 461 -21 437 -3 443 -2 469 18 l27 21 0 360 c0 346 -1 360 -20 379 -19
19 -33 20 -469 20 l-450 0 -21 -27z m830 -368 l0 -265 -355 0 -355 0 0 265 0
265 355 0 355 0 0 -265z"/>
<path d="M480 3170 c-26 -26 -26 -64 0 -90 19 -19 33 -20 469 -20 387 0 452 2
465 15 26 27 29 56 8 84 l-19 26 -451 3 c-441 2 -452 2 -472 -18z"/>
<path d="M1621 3164 c-12 -15 -21 -32 -21 -39 0 -7 9 -24 21 -39 l20 -26 453
0 c426 0 454 1 469 18 23 25 21 68 -3 92 -19 19 -33 20 -469 20 l-450 0 -20
-26z"/>
<path d="M477 2872 c-24 -26 -21 -67 5 -92 21 -19 34 -20 339 -20 291 0 319 1
339 18 27 22 29 65 5 92 -17 19 -33 20 -345 20 -304 0 -328 -1 -343 -18z"/>
<path d="M1634 2882 c-13 -9 -34 -46 -34 -62 0 -6 11 -22 25 -35 l24 -25 314
0 c303 0 315 1 341 21 29 23 33 54 10 87 -15 22 -15 22 -342 22 -180 0 -332
-4 -338 -8z"/>
</g>
</svg>
